# xmcd
#
# Track frame offsets:
#	150
#	11713
#	28093
#	40873
#	52752
#	68612
#	80874
#	91829
#	105504
#	116577
#	128761
#	140309
#
# Disc length: 2057 seconds
#
# Revision: 1
# Processed by: cddbd v1.5.2PL0 Copyright (c) Steve Scherf et al.
# Submitted via: audiograbber 1.83.01
#
DISCID=9308070c
DTITLE=Various Artist - Classic Country Jukebox
DYEAR=2017
DGENRE=Country
TTITLE0=Johnny Cash - I Walk The Line
TTITLE1=Barbara Mandrell ft. George Jones - I Was Country When Country Wasn't C
TTITLE1=ool
TTITLE2=The Statler Brothers - I'll Go To My Grave Loving You
TTITLE3=Tennessee Ernie Ford - Sixteen Tons
TTITLE4=Kenny Rogers - The Gambler
TTITLE5=Patsy Cline with The Jordanaires - Crazy
TTITLE6=Roger Miller - King Of The Road
TTITLE7=Loretta Lynn - Coal Miner's Daughter
TTITLE8=Conway Twitty - Hello Darlin'
TTITLE9=Hank Williams with The Drifting Cowboys - Your Cheatin' Heart
TTITLE10=George Jones - She Thinks I Still Care
TTITLE11=Glen Campbell - Wichita Lineman
EXTD=
EXTT0=
EXTT1=
EXTT2=
EXTT3=
EXTT4=
EXTT5=
EXTT6=
EXTT7=
EXTT8=
EXTT9=
EXTT10=
EXTT11=
PLAYORDER=
